<?xml version="1.0" encoding="UTF-8"?><svg id="Earth" xmlns="http://www.w3.org/2000/svg" viewBox="0 0 80 80"><defs><style>.cls-1{fill:#009245;}.cls-2{fill:#003b99;}.cls-3{opacity:.25;}</style></defs><path class="cls-2" d="M79.1,40c0,.75-.02,1.49-.06,2.23-.06,1.08-.16,2.15-.31,3.2-.03,.23-.07,.44-.1,.67-1.72,10.98-8,20.44-16.86,26.38-.04,.03-.09,.06-.13,.08-.32,.2-.62,.41-.95,.61-6,3.76-13.09,5.93-20.69,5.93-.79,0-1.57-.02-2.34-.07-2.88-.16-5.67-.64-8.35-1.41-1.77-.5-3.48-1.13-5.14-1.86C10.46,69.68,.9,55.96,.9,40,.9,27.78,6.51,16.87,15.29,9.7,22.03,4.21,30.62,.9,40,.9c2.74,0,5.41,.29,7.99,.82,4.79,.99,9.25,2.87,13.22,5.45,.9,.58,1.77,1.2,2.61,1.84,8.82,6.79,14.66,17.25,15.22,29.09,.04,.63,.05,1.27,.05,1.9Z"/><path class="cls-1" d="M47.03,24.15c-3.62,3.32-8.2,5.4-8.95,8.01-.08,.27-.13,.54-.13,.54-.3,1.81,.34,3.44,.57,4.05,1.2,3.11,3.78,4.31,3.54,6.57-.07,.74-.42,1.3-.66,1.62-1.05,1.03-2.89,.58-4.03-.35-1.42-1.93-3.14-3.29-5.13-4-2.76-.98-5.14-.49-6.04-.27,.02,2.26,.44,5.32,2.52,7.69,3.64,4.12,8.99,2.12,13.55,6.42,3.25,3.06,3.86,7.2,3.97,7.97,.86,5.89-2.55,12.23-8.6,16.62-4.78-.28-9.32-1.42-13.49-3.28,2.59-2.49,2.91-3.93,2.61-4.83-.66-1.94-4.46-1.73-5.89-4.8-.41-.87-.5-1.6-.43-3.04,.08-1.74,.52-5.54,3.24-9.04,1.05-1.36,2.2-2.34,3.17-3.04-4.76-1.05-6.89-6.05-6.49-10.43-1.59-.87-4.66-2.89-6-6.56-.34-.93-.6-2.08-.63-4.17-.04-2.55,.27-6.77,2.41-12.01-.68-1.74-1.44-4.57-.91-7.89,.01-.08,.03-.16,.04-.25C22.03,4.21,30.62,.9,40,.9c2.74,0,5.41,.29,7.99,.82-.58,.6-1.14,1.33-1.58,2.2-2.22,4.35,.5,7.72-1.55,10.06-2.56,2.93-9.02,.21-10.06,2.72-.31,.75-.12,1.93,.41,2.76,.54,.84,1.37,1.22,1.74,1.35,2.27,.82,3.76-1.43,7.46-2.04,2.12-.35,5.13-.18,5.61,1.03,.46,1.17-1.49,2.96-3,4.33Z"/><path class="cls-1" d="M79.05,38.1c-1.13,.68-2.55,.74-3.85,.47-1.31-.26-2.54-.83-3.77-1.35-2.06-.87-4.16-1.64-6.28-2.29-1.15-.34-2.44-.78-2.89-1.87-.43-1.03,.06-2.19,.02-3.31-.06-1.61-1.24-2.94-1.67-4.49-.42-1.53-.06-3.23,.94-4.46,.49-.6,1.16-1.18,1.16-1.95-.01-.7-.56-1.25-1.08-1.72-1.43-1.28-2.87-2.56-4.29-3.85-.83-.74-1.73-1.7-1.47-2.77,.19-.82,.99-1.32,1.73-1.71,1.17-.61,2.38-1.16,3.62-1.62,10.27,6.63,17.22,17.95,17.83,30.93Z"/><path class="cls-1" d="M78.73,45.44c-.03,.23-.07,.44-.1,.67-1.72,10.98-8,20.44-16.86,26.38-.04,.03-.09,.06-.13,.08-.32,.2-.62,.41-.95,.61,.08-.13,.17-.27,.26-.4,1.76-2.81,3.15-5.01,3.43-7.73,.44-4.35-2.49-4.97-2.57-10.61-.02-1.45-.03-4.2,1.66-6.94,.46-.74,2.33-3.77,6.04-4.69,4.4-1.11,8.05,1.61,9.23,2.63Z"/><g class="cls-3"><path d="M79.1,40c0,.75-.02,1.49-.06,2.23-.71,12.61-7.39,23.62-17.27,30.25-6.22,4.19-13.72,6.62-21.77,6.62-.79,0-1.57-.02-2.34-.07-2.88-.16-5.67-.64-8.35-1.41,8.26-2.51,22.36-8.78,31.1-23.87,7.82-13.52,8.89-29.95,3.43-44.74,8.82,6.79,14.66,17.25,15.22,29.09,.04,.63,.05,1.27,.05,1.9Z"/></g></svg>