<?xml version="1.0" encoding="UTF-8"?><svg id="Layer_2" xmlns="http://www.w3.org/2000/svg" viewBox="0 0 80 80"><defs><style>.cls-1{opacity:.5;}.cls-2{fill:#aa3535;}.cls-3{opacity:.25;}</style></defs><path class="cls-2" d="M79.1,40c0,.75-.02,1.49-.06,2.23-.06,1.09-.17,2.15-.31,3.21-.03,.22-.07,.44-.1,.66-1.72,10.98-8.01,20.44-16.86,26.38-.04,.03-.09,.06-.13,.08-.32,.2-.63,.41-.95,.61-6,3.76-13.1,5.93-20.69,5.93-.79,0-1.57-.02-2.34-.07-2.88-.17-5.67-.65-8.36-1.41-1.77-.51-3.48-1.13-5.13-1.87-4.41-1.95-8.4-4.7-11.77-8.07-5.17-5.14-8.9-11.71-10.55-19.07-.62-2.77-.95-5.65-.95-8.61C.9,27.78,6.51,16.87,15.29,9.7,22.03,4.21,30.62,.9,40,.9c2.74,0,5.41,.29,7.99,.82,4.79,.99,9.26,2.86,13.23,5.44,.9,.59,1.77,1.2,2.61,1.85,3.37,2.59,6.31,5.73,8.68,9.27,3.42,5.1,5.67,11.06,6.36,17.49,.08,.77,.14,1.55,.18,2.33,.04,.63,.05,1.27,.05,1.9Z"/><g class="cls-1"><path d="M78.87,35.77c-1.05,.17-2.17,.18-3.2,.18-3.88,0-7.77,.31-11.61,.95-1.58,.26-3.25,.56-4.74-.04-.81-.33-1.5-.91-2.28-1.3-1.68-.83-3.68-.74-5.52-.38-1.84,.37-3.64,.98-5.51,1.14-.97,.08-1.96,.03-2.89-.28-.88-.3-1.68-.84-2.4-1.43-1.29-1.04-2.47-2.39-2.7-4.02-.29-2.08,1.05-4.1,2.8-5.25,1.75-1.14,3.86-1.58,5.91-2,2.97-.61,3.82-.75,5.21-1.06,5.52-1.27,5.18-3.26,9.38-4.11,3.43-.7,4.13,.54,10.96,.12,.08,0,.16-.01,.23-.01,3.42,5.1,5.67,11.06,6.36,17.49Z"/></g><g class="cls-1"><path d="M42.36,61.9c-.24,1.64-1.41,2.99-2.7,4.03-.73,.59-1.52,1.12-2.41,1.42-.92,.31-1.91,.36-2.88,.28-1.87-.15-3.67-.77-5.51-1.13-1.85-.36-3.84-.46-5.52,.38-.79,.39-1.47,.97-2.28,1.3-1.49,.6-3.17,.29-4.75,.03-1.3-.21-2.6-.39-3.91-.53-5.17-5.14-8.9-11.71-10.55-19.07,.6,.19,1.39,.41,2.53,.61,1.33,.24,2.27,.3,3.72,.39,6.83,.42,7.53-.82,10.96-.12,4.19,.85,3.86,2.84,9.38,4.1,1.39,.32,2.24,.46,5.21,1.07,2.05,.41,4.15,.85,5.91,2,1.75,1.14,3.09,3.17,2.8,5.24Z"/></g><g class="cls-3"><path d="M79.1,40c0,.75-.02,1.49-.06,2.23-.71,12.61-7.39,23.62-17.27,30.25-6.22,4.19-13.72,6.62-21.77,6.62-.79,0-1.57-.02-2.34-.07-2.88-.16-5.67-.64-8.35-1.41,8.26-2.51,22.36-8.78,31.1-23.87,7.82-13.52,8.89-29.95,3.43-44.74,8.82,6.79,14.66,17.25,15.22,29.09,.04,.63,.05,1.27,.05,1.9Z"/></g></svg>