<?xml version="1.0" encoding="UTF-8"?><svg id="Pluto" xmlns="http://www.w3.org/2000/svg" viewBox="0 0 80 80"><defs><style>.cls-1{fill:#7c526a;}.cls-2{fill:#b7aa97;}.cls-3{opacity:.25;}</style></defs><path class="cls-2" d="M79.1,40c0,15.96-9.56,29.68-23.27,35.75-1.65,.74-3.36,1.36-5.13,1.87-.51,.14-1.02,.28-1.54,.4-2.21,.53-4.49,.87-6.82,1.01-.77,.05-1.55,.07-2.34,.07-3.58,0-7.05-.48-10.34-1.4-3.7-1-7.18-2.54-10.35-4.53-.32-.2-.63-.41-.95-.61-.04-.02-.09-.05-.13-.08-8.85-5.94-15.14-15.4-16.86-26.38-.03-.22-.07-.44-.1-.66-.14-1.06-.25-2.12-.31-3.21-.04-.74-.06-1.48-.06-2.23,0-.63,0-1.27,.05-1.9,.56-11.85,6.4-22.31,15.22-29.09,.84-.65,1.71-1.26,2.61-1.85,3.97-2.58,8.44-4.45,13.23-5.44,2.58-.53,5.25-.82,7.99-.82,9.38,0,17.97,3.31,24.71,8.8,1.75,1.43,3.37,3,4.85,4.71,5.94,6.86,9.54,15.8,9.54,25.59Z"/><path class="cls-1" d="M79.1,40c0,15.96-9.56,29.68-23.27,35.75-1.65,.74-3.36,1.36-5.13,1.87-.51,.14-1.02,.28-1.54,.4-2.21,.53-4.49,.87-6.82,1.01-.77,.05-1.55,.07-2.34,.07-3.58,0-7.05-.48-10.34-1.4,1.9-.34,4.22-.98,6.75-2.38,2.25-1.24,8.18-4.5,9.34-10.11,.74-3.56-1.23-6.51-1.07-13.02,.07-2.94,.24-4.74,1.19-6.94,1.06-2.44,3.19-4.22,5.03-6.15,1.84-1.93,3.53-4.37,3.29-7.02-.13-1.57-.93-3.17-.41-4.65,.57-1.6,2.38-2.31,3.94-2.97,1.56-.67,3.27-1.82,3.22-3.52-.02-.74-.39-1.42-.63-2.11-.72-2.1,.14-4.92,2.29-5.42,.61-.15,1.25-.09,1.88-.01,1.72,.21,3.42,.55,5.08,1.01,5.94,6.86,9.54,15.8,9.54,25.59Z"/><path class="cls-1" d="M49.43,25.38c.29,.83,.81,2.29,.24,3.91-.34,.96-.92,1.6-1.29,1.95-1.05,.79-1.84,.82-2.27,.77-2.23-.28-3.81-3.91-3.26-6.72,.12-.64,.53-2.74,2.18-3.23,1.38-.41,2.68,.58,2.88,.74,.55,.62,1.15,1.47,1.54,2.59Z"/><path class="cls-1" d="M35.42,46.14c1.02-.25,2,.46,2.92,1.15,1.43,1.06,2.11,2.46,2.35,3.01,.09,.19,.92,2.02,.12,3.66-.74,1.51-2.27,1.66-2.49,1.68-2.29,.18-3.9-1.63-4.08-1.86-1.27-1.62-1.05-3.51-1-3.92,.09-1.91,.98-3.43,2.18-3.72Z"/><path class="cls-1" d="M29.19,38.34c.54-.13,1.05,.24,1.53,.6,.75,.56,1.1,1.29,1.23,1.58,.05,.1,.48,1.06,.06,1.92-.39,.79-1.19,.87-1.3,.88-1.2,.1-2.04-.85-2.14-.97-.67-.85-.55-1.84-.52-2.05,.04-1,.51-1.8,1.14-1.95Z"/><g class="cls-3"><path d="M79.1,40c0,.75-.02,1.49-.06,2.23-.71,12.61-7.39,23.62-17.27,30.25-6.22,4.19-13.72,6.62-21.77,6.62-.79,0-1.57-.02-2.34-.07-2.88-.16-5.67-.64-8.35-1.41,8.26-2.51,22.36-8.78,31.1-23.87,7.82-13.52,8.89-29.95,3.43-44.74,8.82,6.79,14.66,17.25,15.22,29.09,.04,.63,.05,1.27,.05,1.9Z"/></g></svg>