<?xml version="1.0" encoding="UTF-8"?><svg id="Titan" xmlns="http://www.w3.org/2000/svg" viewBox="0 0 80 80"><defs><style>.cls-1{fill:#fbb03b;}.cls-2{opacity:.25;}</style></defs><path class="cls-1" d="M79.1,40c0,.75-.02,1.49-.06,2.23-.06,1.08-.16,2.15-.31,3.2-.03,.23-.07,.44-.1,.67-1.72,10.98-8,20.44-16.86,26.38-.04,.03-.09,.06-.13,.08-.32,.2-.62,.41-.95,.61-6,3.76-13.09,5.93-20.69,5.93-.79,0-1.57-.02-2.34-.07-2.88-.16-5.67-.64-8.35-1.41-1.77-.5-3.48-1.13-5.14-1.86C10.46,69.68,.9,55.96,.9,40,.9,27.78,6.51,16.87,15.29,9.7,22.03,4.21,30.62,.9,40,.9c2.74,0,5.41,.29,7.99,.82,4.79,.99,9.25,2.87,13.22,5.45,.9,.58,1.77,1.2,2.61,1.84,8.82,6.79,14.66,17.25,15.22,29.09,.04,.63,.05,1.27,.05,1.9Z"/><g class="cls-2"><path d="M79.1,40c0,.75-.02,1.49-.06,2.23-.71,12.61-7.39,23.62-17.27,30.25-6.22,4.19-13.72,6.62-21.77,6.62-.79,0-1.57-.02-2.34-.07-2.88-.16-5.67-.64-8.35-1.41,8.26-2.51,22.36-8.78,31.1-23.87,7.82-13.52,8.89-29.95,3.43-44.74,8.82,6.79,14.66,17.25,15.22,29.09,.04,.63,.05,1.27,.05,1.9Z"/></g></svg>