<?xml version="1.0" encoding="UTF-8"?><svg id="Layer_4" xmlns="http://www.w3.org/2000/svg" viewBox="0 0 80 80"><defs><style>.cls-1{fill:#a84343;}.cls-2{opacity:.25;}.cls-3{fill:#ff8500;}</style></defs><path class="cls-3" d="M79.1,40c0,.75-.02,1.49-.06,2.23-.06,1.09-.17,2.15-.31,3.21-.03,.22-.07,.44-.1,.66-.97,6.18-3.39,11.89-6.9,16.75-2.72,3.77-6.09,7.04-9.96,9.63-.04,.03-.09,.06-.13,.08-.32,.2-.63,.41-.95,.61-6,3.76-13.1,5.93-20.69,5.93-.79,0-1.57-.02-2.34-.07-2.88-.17-5.67-.65-8.36-1.41-1.77-.51-3.48-1.13-5.13-1.87C11.85,70.3,2.88,58.67,1.2,44.79c-.2-1.57-.3-3.17-.3-4.79,0-3.35,.42-6.61,1.22-9.71,2.1-8.22,6.8-15.39,13.17-20.59C22.03,4.21,30.62,.9,40,.9c2.74,0,5.41,.29,7.99,.82,4.79,.99,9.26,2.86,13.23,5.44,.9,.59,1.77,1.2,2.61,1.85,8.42,6.47,14.12,16.3,15.1,27.49,.06,.53,.09,1.06,.12,1.6,.04,.63,.05,1.27,.05,1.9Z"/><path class="cls-1" d="M79.1,40c0,.75-.02,1.49-.06,2.23-.06,1.09-.17,2.15-.31,3.21-.03,.22-.07,.44-.1,.66-.97,6.18-3.39,11.89-6.9,16.75-.64-.2-1.24-.25-1.8-.19-5.08,.47-7.08,6.1-12.34,8.24-2.1,.86-5.42,1.35-10.54-.7-7.01-3.02-10.9-9.23-9.91-14.57,.58-3.15,2.71-5.28,4.04-6.37,4.91-2.89,7.13-2.75,8.24-1.94,1.36,.98,1.39,2.54,2.72,4.93,1.66,2.97,4.13,4.75,6,5.8,.87,.24,4.66,1.18,7.71-.94,2.59-1.8,3.39-4.95,3.98-7.29,.44-1.71,.3-2.21,.56-3.47,.45-2.23,1.81-5.33,6.01-8.72,.45-.34,1.2-.82,2.2-1.06,.11-.03,.22-.05,.33-.07,.06,.53,.09,1.06,.12,1.6,.04,.63,.05,1.27,.05,1.9Z"/><path class="cls-1" d="M18.33,14.03c.27,.95,1.5,1.35,2.25,1.61,.86,.3,7.02,2.56,11.17,5.29,1.19,.79,2.33,1.69,3.16,2.86,.77,1.08,1.25,2.36,2.05,3.42,.9,1.19,2.28,2.11,3.78,2.12,1.12,.01,2.18-.47,3.14-1.03,.85-.5,1.68-1.08,2.27-1.87,.78-1.04,1.08-2.37,1.22-3.66,.11-1.09,.12-2.19-.07-3.26-.48-2.63-2.14-4.86-3.75-6.99-.95-1.26-1.91-2.52-2.86-3.78-.72-.96-1.31-1.22-1.45-1.32-.65-.46-2.17-1.54-4-1.47-1.58,.06-1.54,.92-3.78,1.27-1.26,.2-1.55-.11-2.72,.28-.9,.3-1.68,.89-2.59,1.15-2.18,.62-2.91-.27-4.56,.55-.92,.46-1.45,1.14-2.01,1.86-.66,.86-1.53,1.99-1.25,2.97Z"/><g class="cls-2"><path d="M79.1,40c0,.75-.02,1.49-.06,2.23-.71,12.61-7.39,23.62-17.27,30.25-6.22,4.19-13.72,6.62-21.77,6.62-.79,0-1.57-.02-2.34-.07-2.88-.16-5.67-.64-8.35-1.41,8.26-2.51,22.36-8.78,31.1-23.87,7.82-13.52,8.89-29.95,3.43-44.74,8.82,6.79,14.66,17.25,15.22,29.09,.04,.63,.05,1.27,.05,1.9Z"/></g><path class="cls-1" d="M31.62,48.61c-.09,.53-.25,1.06-.62,1.51-.36,.44-.96,.77-1.61,.78-.64,0-1.22-.32-1.75-.62-1.34-.76-2.68-1.53-4.02-2.3-1.5-.85-3.02-1.72-4.72-2.28-3.54-1.18-7.55-.93-11.22-.11-1.28,.29-2.61,.65-3.91,.44-.99-.16-1.85-.64-2.57-1.24-.2-1.57-.3-3.17-.3-4.79,0-3.35,.42-6.61,1.22-9.71,.44,.16,.87,.32,1.29,.5,1.08,.45,2.09,1,3.14,1.48,5.04,2.31,10.91,2.93,16.41,4.34,1.41,.36,2.84,.79,3.96,1.59,1,.71,1.68,1.68,2.3,2.64,1.54,2.4,2.85,5.07,2.4,7.77Z"/></svg>