<?xml version="1.0" encoding="UTF-8"?><svg id="ship" xmlns="http://www.w3.org/2000/svg" viewBox="0 0 1086.37 548.04"><defs><style>.cls-1{fill:#7288af;}.cls-2{opacity:.1;}.cls-3{fill:#6e98f3;}</style></defs><g id="flame"><path class="cls-1" d="M189.08,293.08c-16.6,2.21-33.35,4.57-50.26,7.09-42.33,6.32-83.48,13.33-123.43,20.91,54.84,12.31,109.68,24.63,164.53,36.94"/></g><path class="cls-3" d="M249.08,362.78c-4.24,.85-8.49,1.69-12.75,2.52-13.67,2.66-27.26,5.19-40.76,7.57-8.7,1.54-17.36,3.02-25.98,4.45,0-17.61,.09-35.46,.32-53.55,.23-18.32,.59-36.39,1.05-54.21,11.41,.84,22.82,1.71,34.23,2.59,6.86,.53,13.72,1.07,20.59,1.62,5.39,.42,10.78,.85,16.18,1.29l7.12,87.72Z"/><g class="cls-2"><path d="M249.08,362.78c-4.24,.85-8.49,1.69-12.75,2.52-13.67,2.66-27.26,5.19-40.76,7.57,2.75-8.27,5.02-15.21,6.71-20.42,13.99-42.99,19.98-64.37,23.5-78.68,5.39,.42,10.78,.85,16.18,1.29l7.12,87.72Z"/></g><path class="cls-3" d="M1076.39,357.64c-2.48,23.93-65.49,49.96-320.88,62.51-10.88,.53-22.11,1.04-33.7,1.53-44.81,1.87-95,3.36-151.16,4.4-17.9-2.59-35.79-5.18-53.69-7.77-3.58-.52-7.17-1.04-10.75-1.56-22.05-3.19-44.11-6.38-66.16-9.58-24.31-3.51-48.62-7.03-72.93-10.55-44.92-6.51-89.85-13.01-134.77-19.51,1.06-17.57,1.19-37.86-.66-60.28-1.77-21.42-4.99-40.63-8.68-57.21,57.66-8.27,115.33-16.54,172.99-24.81,131.85,.47,200.91-1.6,362.86-2.37,74.65-.36,163.96,24.31,228.84,53.74,23.3,10.57,43.44,21.75,58.62,32.61,19.84,14.2,31.21,27.84,30.07,38.85Z"/><path class="cls-3" d="M384.31,242.99l-91.2,13.57-17.36,2.58-51.22,7.62-53.69-130.84-14.71-35.84c-10.05-24.51-20.11-49.02-30.17-73.52,32.22-.75,64.44-1.49,96.66-2.23,53.9,72.89,107.79,145.77,161.69,218.66Z"/><g class="cls-2"><path d="M275.75,259.14l-51.22,7.62-53.69-130.84c16.47,20.01,33.32,40.16,50.55,60.41,18.18,21.37,36.3,42.31,54.36,62.81Z"/></g><g class="cls-2"><path d="M806.45,383.71c-27.39,12.93-55.6,25.61-84.64,37.97-44.81,1.87-95,3.36-151.16,4.4-17.9-2.59-35.79-5.18-53.69-7.77-3.58-.52-7.17-1.04-10.75-1.56,10.74-10.48,21.48-20.96,32.22-31.44l268.02-1.6Z"/></g><g class="cls-2"><path d="M465.52,395.98c-9.14,4.33-17.65,8.03-25.47,11.19-24.31-3.51-48.62-7.03-72.93-10.55,1.83-.27,3.66-.55,5.5-.83,24.78-3.77,48.99-7.79,72.62-12.02l20.28,12.21Z"/></g><path class="cls-3" d="M799.18,383.66c-152.26,37.61-304.52,75.23-456.78,112.85-11.94,2.95-23.87,5.9-35.81,8.85-4.2,1.03-8.41,2.07-12.61,3.11-11.76-1.48-23.52-2.97-35.28-4.45-21.12-2.67-42.24-5.33-63.37-8-11.02-1.39-22.05-2.78-33.07-4.17,19.35-7.39,38.69-14.78,58.04-22.17,4.01-1.53,8.03-3.07,12.04-4.6,5.87-2.24,11.75-4.48,17.62-6.73,2.95-1.12,5.89-2.24,8.84-3.37,62.15-23.73,124.29-47.47,186.44-71.21l353.94-.11Z"/><g id="see"><path d="M1046.32,318.79c-52.15,1.55-104.3,3.09-156.45,4.65l-.36-.26c-9.54-11.63-19.07-23.27-28.61-34.9l-.19-.3c42.33-.6,84.66-1.19,126.99-1.8,23.3,10.57,43.44,21.75,58.62,32.61Z"/></g><g class="cls-2"><path d="M342.4,496.51c-11.94,2.95-23.87,5.9-35.81,8.85-4.2,1.03-8.41,2.07-12.61,3.11-11.76-1.48-23.52-2.97-35.28-4.45-21.12-2.67-42.24-5.33-63.37-8-1.41-.42-2.81-.84-4.22-1.26l-.04-.44c7.12-7.02,15.69-14.6,25.81-22.14,1.15-.86,2.29-1.69,3.42-2.5,7.86-5.65,15.42-10.37,22.39-14.33,2.42,1,4.85,2,7.27,3,30.81,12.72,61.62,25.44,92.44,38.16Z"/></g><path class="cls-3" d="M102.23,385.83c20.01,35.34,40.02,70.68,60.03,106.02l131.72,16.62c-33.27-37.92-66.55-75.83-99.82-113.75-30.64-2.96-61.28-5.93-91.92-8.89Z"/><g class="cls-2"><path d="M270.37,527.49s.1,.02,.15,.04c0,.04,.03,.08,.04,.12-.07-.05-.13-.11-.19-.16Z"/></g></svg>