<?xml version="1.0" encoding="UTF-8"?><svg id="Layer_5" xmlns="http://www.w3.org/2000/svg" viewBox="0 0 1086.37 548.04"><defs><style>.cls-1{fill:#6e98f3;}</style></defs><path class="cls-1" d="M548.97,405.59h-90.27c4.66-31.25,14.4-58.37,29.21-81.35,14.81-22.97,44.49-53.71,89.04-92.19,37.55-32.89,59.65-54.58,66.3-65.08,6.65-10.5,9.97-20.64,9.97-30.44,0-14.46-5.72-26.53-17.14-36.21-11.43-9.68-28.92-14.52-52.48-14.52-26.13,0-47.47,7.12-64.03,21.34-16.56,14.23-28.34,36.97-35.34,68.23l-92.02-16.09c11.9-45.48,34.87-81.4,68.93-107.76,34.05-26.36,75.45-39.54,124.21-39.54s90.5,12.66,118.96,37.96c28.46,25.31,42.68,55.58,42.68,90.79,0,20.53-6.07,41-18.19,61.4-12.13,20.41-45.37,53.13-99.71,98.14-34.06,28.46-55.05,48.28-62.98,59.48-7.93,11.2-13.64,26.48-17.14,45.83Zm-100.76,31.14h99.36l-20.29,96.92h-99.36l20.29-96.92Z"/></svg>