<?xml version="1.0" encoding="UTF-8"?><svg id="stack" xmlns="http://www.w3.org/2000/svg" viewBox="0 0 1086.37 548.04"><defs><style>.cls-1{opacity:.2;}.cls-2{fill:#7288af;}.cls-3{opacity:.1;}.cls-4{opacity:.25;}.cls-5{fill:#6e98f3;}</style></defs><g id="side"><path class="cls-5" d="M427.46,504.05c51.01,11.83,102.02,23.66,153.02,35.49,35.21-65.31,78.31-136.84,131.02-211.44,54.99-77.82,110.36-144.75,162.16-201.4-31.27-26.6-62.53-53.2-93.8-79.8"/></g><g class="cls-4"><path d="M873.67,126.69c-51.8,56.65-107.18,123.58-162.16,201.4-52.71,74.6-95.82,146.13-131.02,211.44-8.47-1.96-16.95-3.93-25.42-5.89-3.26-.76-6.52-1.51-9.78-2.27-10.18-2.36-20.35-4.72-30.53-7.08-3.36-.77-6.72-1.55-10.08-2.34-8.81-2.04-17.63-4.08-26.44-6.13-4.11-.95-8.21-1.9-12.32-2.85h-.01c-12.82-2.97-25.63-5.95-38.45-8.92L779.87,46.89c16.92,14.4,33.85,28.8,50.78,43.2l6.18,5.26c5.54,4.72,11.09,9.44,16.64,14.15,1.92,1.64,3.84,3.28,5.77,4.91,4.81,4.1,9.62,8.19,14.43,12.28Z"/></g><g id="face"><path class="cls-5" d="M779.34,46.78c-80.74-12.76-161.48-25.52-242.23-38.28-26.89,59.7-66.16,132.64-123.51,208.89-65.66,87.29-134.2,151.25-189.86,195.95,67.91,30.23,135.81,60.47,203.72,90.7l.14,.03c60.12-55.04,127.99-125.22,195.26-212.41,67.87-87.97,118.87-172.15,157-244.79"/></g><g class="cls-1"><path d="M422.28,472.08c28.88-27.2,56.8-55.41,83.6-84.67,21.87-23.88,42.99-48.45,63.26-73.71,20.82-25.95,40.69-52.65,59.71-79.94,19.36-27.78,37.89-56.13,55.74-84.9,15.53-25.02,30.61-50.32,45.12-75.95,1.71-3.02,3.41-6.04,5.1-9.06,1.29-2.3,.28-6.13-2.69-6.61-45.09-7.36-90.18-14.72-135.27-22.09-12.76-2.08-25.51-4.17-38.27-6.25-1.9-.31-4.12,.18-5.08,2.07-12.46,24.44-25.64,48.51-39.54,72.17-15.59,26.52-32.07,52.51-49.41,77.92-19.02,27.86-39.07,55.03-60.13,81.39-20.03,25.07-40.94,49.43-62.68,73.02-19.32,20.96-39.29,41.31-59.88,61.02-2.41,2.31-4.83,4.6-7.25,6.89-1.93,1.82-1.74,5.9,.91,7.07,36.64,16.16,73.28,32.32,109.92,48.48,10.47,4.62,20.94,9.23,31.41,13.85,2.22,.98,4.83,.65,6.16-1.61,1.12-1.91,.62-5.17-1.61-6.16-36.64-16.16-73.28-32.32-109.92-48.48-10.47-4.62-20.94-9.23-31.41-13.85l.91,7.07c20.59-19.43,40.58-39.49,59.93-60.15,21.66-23.14,42.51-47.03,62.51-71.62,21.47-26.4,41.97-53.59,61.43-81.51,17.99-25.81,35.08-52.24,51.24-79.24,14.32-23.93,27.91-48.29,40.75-73.05,1.49-2.88,2.97-5.76,4.45-8.65l-5.08,2.07c45.09,7.36,90.18,14.72,135.27,22.09,12.76,2.08,25.51,4.17,38.27,6.25l-2.69-6.61c-14.6,26.1-29.8,51.85-45.47,77.32-16.69,27.15-33.98,53.95-51.98,80.26-19.35,28.28-39.59,56.09-60.74,82.83-19.47,24.62-39.76,48.58-60.77,71.9-25.89,28.74-52.86,56.5-80.78,83.27-3.78,3.62-7.57,7.23-11.38,10.81-4.23,3.98,2.15,10.34,6.36,6.36Z"/></g><ellipse class="cls-1" cx="504.68" cy="254.32" rx="86.42" ry="62.3" transform="translate(3.4 515.29) rotate(-54.25)"/><g id="bandside"><path class="cls-2" d="M601.01,318.82c6.02-7.74,12.04-15.53,18.07-23.35,12.45-16.17,24.75-32.3,36.88-48.37,.16-.16,.33-.33,.49-.49,22.05,10.36,44.24,20.95,66.57,31.77,15.6,7.56,31.06,15.13,46.4,22.72-17.02,23.57-34.05,47.15-51.07,70.72-39.01-17.6-78.02-35.2-117.03-52.8"/></g><g class="cls-4"><path d="M601.01,318.82c6.02-7.74,12.04-15.53,18.07-23.35,12.49-16.22,24.82-32.39,37-48.51,.12-.12,.25-.23,.37-.35,22.05,10.36,44.24,20.95,66.57,31.77,15.6,7.56,31.06,15.13,46.4,22.72-17.02,23.57-34.05,47.15-51.07,70.72-39.01-17.6-78.02-35.2-117.03-52.8"/></g><g id="band"><path class="cls-2" d="M656.68,246.71c-18.46,24.1-36.91,48.2-55.37,72.3-86.73-26.58-173.45-53.16-260.18-79.73,.72-.91,12.9-16.43,25.79-32.87,14.01-17.86,27.17-34.65,28.01-35.73,87.17,25.31,174.34,50.62,261.5,75.93"/></g><g class="cls-3"><path d="M600.74,418.65c-12.81,18.81-27.59,38.79-44.6,59.36-14.03,16.98-27.93,32.38-41.38,46.28-3.36-.77-6.72-1.55-10.08-2.34,13.12-13.62,26.66-28.66,40.31-45.17,17.01-20.57,31.79-40.55,44.6-59.36l.04-.25c3.59,.56,7.18,1.11,10.78,1.66l.33-.18Z"/></g><g class="cls-3"><path d="M587.37,484.53c-5.44,9.66-11.65,19.81-18.75,30.27-4.52,6.67-9.06,12.95-13.55,18.84-3.26-.76-6.52-1.51-9.78-2.27,12.69-15.34,24.08-31.75,34.02-49,.03-.08,.05-.16,.08-.24,2.66,.8,5.32,1.6,7.98,2.4Z"/></g><g class="cls-3"><path d="M518.71,472.96c-7.61,9.69-16.8,20.27-27.79,31.06-4.27,4.2-8.51,8.13-12.68,11.8-4.11-.95-8.21-1.9-12.32-2.85,5.81-5.14,11.75-10.67,17.76-16.6,9.11-8.98,17.29-17.8,24.6-26.24,3.48,.95,6.95,1.89,10.43,2.83Z"/></g><g class="cls-3"><path d="M859.24,114.41c-23.62,28.92-47.25,57.85-70.89,86.78-2.16-1.19-4.33-2.38-6.5-3.56l-.28-.12c23.96-29.34,47.92-58.67,71.9-88.01,1.92,1.64,3.84,3.28,5.77,4.91Z"/></g><g class="cls-3"><path d="M830.65,90.09c-18.04,24.97-37.23,50.42-57.62,76.21-12.97,16.4-25.9,32.27-38.77,47.64h.1c2.47,1,4.94,2.01,7.41,3.02l.53-.34c12.87-15.36,25.8-31.24,38.77-47.63,19.69-24.92,38.26-49.51,55.76-73.64l-6.18-5.26Z"/></g></svg>