<?xml version="1.0" encoding="UTF-8"?><svg id="planet" xmlns="http://www.w3.org/2000/svg" viewBox="0 0 1086.37 548.04"><defs><style>.cls-1{fill:#7288af;}.cls-2{opacity:.1;}.cls-3{fill:#6e98f3;}</style></defs><path class="cls-3" d="M793.69,210.54c10.13,37.8,11.35,75.88,4.93,112.02-2.22,12.53-5.36,24.84-9.36,36.82-26.63,79.63-91.43,144.81-178.59,168.16-89.71,24.04-181.03-2.13-244.16-61.27-8.84-8.29-17.13-17.21-24.78-26.75-21.82-27.16-38.47-59.19-48.07-95.01-.25-.95-.5-1.89-.75-2.82-.43-1.67-.83-3.35-1.23-5.01-.98-4.19-1.86-8.37-2.63-12.56-.07-.37-.14-.74-.2-1.11-1.18-6.53-2.09-13.04-2.74-19.55,0-.02,0-.05,0-.07-.7-6.85-1.11-13.67-1.26-20.47-.11-4.93-.07-9.84,.1-14.73,.19-5.48,.56-10.92,1.11-16.33,.52-5.24,1.2-10.46,2.04-15.63,.46-2.85,.96-5.67,1.52-8.49,1.06-5.42,2.3-10.78,3.71-16.1,10.46-39.61,30.19-76.22,57.4-106.69,32.42-36.31,75.42-63.9,125.95-77.44,43.49-11.65,87.35-11.51,128.19-1.53,43.45,10.62,83.49,32.35,116,62.87,3.97,3.71,7.81,7.55,11.53,11.51,2.17,2.3,4.28,4.63,6.36,7.01h0c3.39,3.87,6.66,7.87,9.82,11.97,4.93,6.38,9.58,13.01,13.92,19.89,.95,1.5,1.9,3.02,2.81,4.55,4.73,7.83,9.06,15.97,12.96,24.39,.05,.09,.09,.18,.13,.28,3.32,7.12,6.32,14.47,9,22,.17,.48,.34,.97,.52,1.47,1.15,3.27,2.22,6.59,3.24,9.93,.49,1.61,.97,3.23,1.44,4.86,.36,1.27,.71,2.54,1.06,3.83Z"/><path id="Ring" class="cls-1" d="M524.91,207.48C229.91,286.53-.83,381.97,9.53,420.66c10.37,38.69,257.91,5.97,552.92-73.08,295-79.05,525.74-174.49,515.38-213.17s-257.91-5.97-552.92,73.08Zm27.02,100.84c-198.84,53.28-364.04,81.46-369.01,62.93-4.96-18.52,152.2-76.73,351.03-130,198.84-53.28,364.04-81.45,369.01-62.93s-152.2,76.73-351.03,130Z"/><g id="cover"><path class="cls-3" d="M787.44,190.46c-77.23,15.82-157.99,34.49-241.76,56.56-90.68,23.91-176.37,49.54-256.82,76.01-2.4-13.41-3.72-26.8-4.01-40.09-.11-4.93-.07-9.84,.1-14.73,1-.22,1.83-.37,2.32-.46,91.65-17.09,178.65-53.77,269.41-75.07,27.01-6.35,53.35-13.89,53.35-13.89,8.78-2.51,15.01-4.41,17.54-5.17,17.47-5.28,45.76-13.04,93.28-23.93,2.99-1.23,17.1-6.94,29.92-9.34,4.98-.93,8.75-1.18,11.76-1.11,.95,1.5,1.9,3.02,2.81,4.55,8.78,14.55,16.21,30.14,22.09,46.66Z"/></g><g id="line" class="cls-2"><path d="M720.88,88.86c-58.78,26.7-128.4,53.81-208.06,76.76-80.67,23.24-154.9,37.4-219.48,46.04-1.41,5.32-2.65,10.68-3.71,16.1-.56,2.82-1.06,5.65-1.52,8.49,132.12-12.19,334.06-70.45,450.67-128.86h0s-17.9-18.52-17.9-18.52Z"/></g><g id="line-2" class="cls-2"><path d="M604.88,25.99c-2.19,1.06-4.43,2.14-6.7,3.22-22.38,10.64-92.21,42.66-191.63,64.94-15.6,3.5-34.33,7.29-55.81,10.8,32.42-36.31,75.42-63.9,125.95-77.44,43.49-11.65,87.35-11.51,128.19-1.53Z"/></g><g id="line-3" class="cls-2"><path d="M791.19,201.85c-71.83,29.84-155.5,59.67-250.08,84.95-90.74,24.25-174.79,39.86-249.42,49.88-.98-4.19-1.86-8.37-2.63-12.56-.07-.37-.14-.74-.2-1.11-1.18-6.53-2.09-13.04-2.74-19.55,0-.02,0-.05,0-.07,69.93-8.74,148.89-22.79,234.25-45.29,99.12-26.14,185.52-58.04,258.08-89.66,3.32,7.12,6.32,14.47,9,22,.17,.48,.34,.97,.52,1.47,1.15,3.27,2.22,6.59,3.24,9.93Z"/></g><g id="line-4" class="cls-2"><path d="M798.62,322.56c-2.22,12.53-5.36,24.84-9.36,36.82-59.69,24.17-128.51,47.83-205.77,67.48-78.87,20.05-151.99,32.21-216.98,39.42-8.84-8.29-17.13-17.21-24.78-26.75,69.65-8.61,147.82-22.29,232.1-43.87,84.37-21.59,159.54-47.18,224.79-73.1Z"/></g></svg>