<?xml version="1.0" encoding="UTF-8"?><svg id="Layer_2" xmlns="http://www.w3.org/2000/svg" viewBox="0 0 80.1 80.1"><defs><style>.cls-1{fill:#fff;}.cls-2{opacity:.5;}.cls-3{fill:#888;}</style></defs><path class="cls-3" d="m65.74,45.46c-.98,4.72-3.27,9.21-6.84,12.87-.46.48-.95.95-1.46,1.4-8.37,7.38-20.14,8.44-29.46,3.53,5.84-3.93,12.05-8.58,18.39-14.05.35-.31.7-.62,1.06-.93,3.36-2.95,6.48-5.91,9.38-8.82,2.83-2.85,5.46-5.66,7.87-8.4,1.71,4.64,2.05,9.64,1.06,14.4Z"/><path class="cls-3" d="m58.13,21.15c-3.45,3.78-7.21,7.66-11.3,11.58-2.26,2.17-4.61,4.35-7.07,6.53-1.15,1.02-2.3,2.02-3.44,2.99-5.88,5.04-11.65,9.49-17.18,13.43-5.77-7.78-6.62-17.93-2.78-26.37,1.47-3.26,3.65-6.27,6.51-8.79.76-.67,1.55-1.29,2.36-1.85,10.11-7.06,23.91-6.06,32.9,2.48Z"/><path class="cls-3" d="m77.49,4.79c-.45-.05-.91.03-1.34.15-1.01.32-1.84.79-2.7,1.3-5.2,3.28-9.89,7.26-14.49,11.3.58.66,1.15,1.33,1.73,1.99,4.69-3.75,8.29-6.46,9.84-7.53,1.16-.81,2.06-1.31,2.55-1.56-.9,1.04-1.84,2.05-2.79,3.05-6.9,7.11-14.05,13.98-21.38,20.65-3.5,3.19-7.05,6.34-10.63,9.45-3.64,3.16-7.31,6.28-11,9.36-4.54,3.76-9.33,7.67-14,11.25-2.41,1.82-4.83,3.68-7.37,5.31.44-.58,1.03-1.32,1.81-2.25,1.2-1.34,2.5-2.71,3.91-4.1,2.02-2,4.02-3.77,5.92-5.35-.26-.25-.52-.51-.78-.78-.42-.42-.82-.84-1.21-1.25-2.29,1.99-4.53,4.05-6.71,6.18-2.2,2.15-4.37,4.34-6.33,6.74-.53.66-1.02,1.3-1.46,2.07-.44.74-.81,1.64-.63,2.57.25,1.32,1.46,2.07,2.74,1.98.69-.04,1.28-.22,1.88-.43,1.18-.43,2.3-.99,3.37-1.56,8.07-4.46,15.48-9.97,22.75-15.55,4.3-3.34,8.51-6.81,12.62-10.38,3.59-3.12,7.1-6.32,10.53-9.62,3.63-3.47,7.17-7.04,10.62-10.69,4.19-4.49,8.3-9.05,11.92-14.04.71-.98,1.4-2,1.99-3.09.45-.87.9-1.78.86-2.82-.03-1.23-.99-2.25-2.22-2.35ZM4.4,72.9c-.01.08-.03.09-.03.09,0-.01.01-.05.01-.09.01-.02.01-.05.02-.07v.07ZM77.2,8.75h-.03s-.06,0-.09,0h.04s.05,0,.05,0h.03s0,0,0,0Z"/><g class="cls-2"><path class="cls-1" d="m39.76,39.26c-1.15,1.02-2.3,2.02-3.44,2.99-6.71-4.54-13.43-8.89-19.96-12.94,1.47-3.26,3.65-6.27,6.51-8.79.76-.67,1.55-1.29,2.36-1.85,5.16,3.1,13.41,8.57,21.6,14.06-2.26,2.17-4.61,4.35-7.07,6.53Z"/></g><g class="cls-2"><path class="cls-1" d="m54.32,37.78c-3.43,3.3-6.94,6.5-10.53,9.62-1.83-1.29-3.67-2.56-5.51-3.81,3.58-3.11,7.13-6.26,10.63-9.45,1.84,1.22,3.65,2.45,5.41,3.64Z"/></g><g class="cls-2"><path class="cls-1" d="m65.74,45.46c-.98,4.72-3.27,9.21-6.84,12.87-4.1-3.08-8.29-6.13-12.53-9.12.35-.31.7-.62,1.06-.93,3.36-2.95,6.48-5.91,9.38-8.82,3.33,2.25,6.4,4.32,8.93,6Z"/></g></svg>